<?xml version="1.0" encoding="UTF-8"?>
<svg width="512" height="512" viewBox="0 0 512 512" fill="none" xmlns="http://www.w3.org/2000/svg">
  <rect width="512" height="512" rx="128" fill="#1A202C"/>
  <path d="M346.667 170.667C311.467 170.667 280 202.133 256 234.667C232 202.133 200.533 170.667 165.333 170.667C112 170.667 64 218.667 64 272C64 325.333 112 373.333 165.333 373.333C200.533 373.333 232 341.867 256 309.333C280 341.867 311.467 373.333 346.667 373.333C400 373.333 448 325.333 448 272C448 218.667 400 170.667 346.667 170.667ZM165.333 320C141.867 320 117.333 295.467 117.333 272C117.333 248.533 141.867 224 165.333 224C188.8 224 220.8 256 234.667 272C220.8 288 188.8 320 165.333 320ZM346.667 320C323.2 320 291.2 288 277.333 272C291.2 256 323.2 224 346.667 224C370.133 224 394.667 248.533 394.667 272C394.667 295.467 370.133 320 346.667 320Z" fill="#6366F1"/>
</svg>